<svg width="100" height="100" viewBox="0 0 100 100" fill="none" xmlns="http://www.w3.org/2000/svg">
<path d="M22.7891 60.0109C31.9217 52.838 41.0301 45.8209 50.189 38.7148C50.9017 39.2513 51.6183 39.7797 52.3209 40.3223C55.3779 42.689 58.4289 45.0638 61.4859 47.4325C63.7372 49.1756 65.9844 50.9248 68.2478 52.6517C71.1753 54.8848 74.119 57.0955 77.0485 59.3225C77.3278 59.5351 77.5708 59.7963 77.8988 60.0939C69.8027 73.0002 60.4271 84.8296 50.2295 96.1588C39.9571 84.9409 30.8447 72.9861 22.7911 60.0109H22.7891Z" fill="url(#paint0_linear_741_33211)"/>
<path d="M50.1506 22.2612C38.7788 31.0376 27.4394 39.7876 15.9968 48.6186C13.537 44.0755 11.146 39.5649 9 34.8012C23.7406 25.9378 37.4912 15.7605 50.1668 4C56.627 9.76181 63.144 15.3455 70.1145 20.3987C77.089 25.4519 84.1829 30.3088 91.5623 34.7222C91.3194 35.9693 85.3511 47.6509 84.4704 48.5882C73.046 39.824 61.6155 31.0578 50.1506 22.2633V22.2612Z" fill="#1E1E1E"/>
<defs>
<linearGradient id="paint0_linear_741_33211" x1="11" y1="64.0742" x2="93" y2="64.0742" gradientUnits="userSpaceOnUse">
<stop offset="0.407013" stop-color="#F5C451"/>
<stop offset="0.507013" stop-color="#7B580E"/>
<stop offset="1" stop-color="#B98322"/>
</linearGradient>
</defs>
</svg>
