<svg width="71" height="71" viewBox="0 0 71 71" fill="none" xmlns="http://www.w3.org/2000/svg">
<g clip-path="url(#clip0_581_34121)">
<path d="M12.7621 31.4785C12.7621 32.6273 13.6934 33.5586 14.8421 33.5586H31.4828C32.6315 33.5586 33.5628 32.6273 33.5628 31.4785V24.2715L34.4892 24.889C35.4407 25.5235 36.7337 25.2721 37.3737 24.3121C38.0109 23.3562 37.7525 22.0648 36.7967 21.4276L33.5628 19.2716V12.0645C33.5628 10.9157 32.6315 9.98438 31.4828 9.98438C30.334 9.98438 29.4027 10.9157 29.4027 12.0645V16.4981L24.3162 13.1071C23.6176 12.6413 22.7072 12.6413 22.0086 13.1071C20.9552 13.8094 11.003 20.4441 9.5281 21.4274C8.57223 22.0646 8.31389 23.3561 8.95108 24.312C9.58828 25.2678 10.8799 25.526 11.8356 24.8888L12.7619 24.2713L12.7621 31.4785ZM23.1625 17.3379L29.4027 21.498V29.3984H25.2425V27.3184C25.2425 26.1696 24.3112 25.2383 23.1625 25.2383C22.0137 25.2383 21.0824 26.1696 21.0824 27.3184V29.3984H16.9222V21.498L23.1625 17.3379Z" fill="#BBA155"/>
<path d="M31.4824 37.7188H14.8418C13.693 37.7188 12.7617 38.6501 12.7617 39.7988C12.7617 40.9476 13.693 41.8789 14.8418 41.8789H31.4824C32.6312 41.8789 33.5625 40.9476 33.5625 39.7988C33.5625 38.6501 32.6312 37.7188 31.4824 37.7188Z" fill="#BBA155"/>
<path d="M14.8418 46.0391C13.693 46.0391 12.7617 46.9704 12.7617 48.1191C12.7617 49.2679 13.693 50.1992 14.8418 50.1992H23.1621C24.3109 50.1992 25.2422 49.2679 25.2422 48.1191C25.2422 46.9704 24.3109 46.0391 23.1621 46.0391H14.8418Z" fill="#BBA155"/>
<path d="M23.1621 54.3594H14.8418C13.693 54.3594 12.7617 55.2907 12.7617 56.4395C12.7617 57.5882 13.693 58.5195 14.8418 58.5195H23.1621C24.3109 58.5195 25.2422 57.5882 25.2422 56.4395C25.2422 55.2907 24.3109 54.3594 23.1621 54.3594Z" fill="#BBA155"/>
<path d="M66.7392 32.149C63.3713 28.7811 58.7504 27.4113 54.3633 28.0393V14.5605C54.3633 13.9914 54.1262 13.462 53.7541 13.0897L41.2736 0.609186C41.2394 0.586305 40.7078 0 39.8027 0H2.08398C0.935227 0 0.00390625 0.93132 0.00390625 2.08008V68.9199C0.00390625 70.0687 0.935227 71 2.08398 71H52.2832C53.432 71 54.3633 70.0687 54.3633 68.9199V56.8093C58.8331 57.4641 63.4546 56.0252 66.7392 52.7408C72.4163 47.0636 72.4163 37.8262 66.7392 32.149ZM41.8828 7.1018L47.2613 12.4805H41.8827V7.1018H41.8828ZM4.16406 4.16016H37.7227V14.5605C37.7227 15.7093 38.654 16.6406 39.8027 16.6406H50.2031V29.2893C48.7353 29.9839 47.3599 30.9364 46.1475 32.149C42.1757 36.1207 40.8995 42.0479 42.7655 47.2976L28.4974 61.5657C28.1073 61.9558 27.888 62.4849 27.888 63.0365V66.8398H4.16406V4.16016ZM40.8733 66.8398L50.2031 57.5101V66.8398H40.8733ZM63.7975 49.799C60.7142 52.8822 55.9705 53.6835 51.9937 51.7926C51.1989 51.4145 50.2519 51.5778 49.6296 52.2003L34.99 66.8398H32.0483V63.8982L46.6879 49.2586C47.3103 48.6362 47.4736 47.6895 47.0956 46.8945C45.2047 42.9176 46.0058 38.174 49.0892 35.0906C53.1442 31.0355 59.7424 31.0355 63.7975 35.0906C67.8526 39.1458 67.8526 45.744 63.7975 49.799Z" fill="#BBA155"/>
<path d="M57.9139 38.031C57.1016 38.8434 57.1016 40.1603 57.9139 40.9727C58.7263 41.785 60.0432 41.785 60.8556 40.9727C61.6679 40.1603 61.6679 38.8434 60.8556 38.031C60.0434 37.2188 58.7263 37.2188 57.9139 38.031Z" fill="#BBA155"/>
</g>
<defs>
<clipPath id="clip0_581_34121">
<rect width="71" height="71" fill="white"/>
</clipPath>
</defs>
</svg>
