<svg width="50" height="84" viewBox="0 0 50 84" fill="none" xmlns="http://www.w3.org/2000/svg">
<g clip-path="url(#clip0_700_33000)">
<path d="M24.9992 66.6774C24.5459 66.6771 24.0995 66.5657 23.6991 66.3531C23.2986 66.1405 22.9563 65.8331 22.702 65.4578L4.21311 38.231C1.00875 33.5086 -0.433681 27.8098 0.138086 22.1313C0.709853 16.4528 3.25942 11.1561 7.34088 7.16751C12.0702 2.57121 18.4048 0 24.9992 0C31.5936 0 37.9282 2.57121 42.6575 7.16751C46.7376 11.1557 49.2863 16.4514 49.858 22.1286C50.4298 27.8059 48.9882 33.5035 45.7853 38.2255L27.2964 65.4522C27.0427 65.8286 26.7007 66.1371 26.3002 66.3507C25.8998 66.5642 25.4531 66.6764 24.9992 66.6774ZM24.9992 5.55613C19.856 5.53752 14.9113 7.5399 11.2298 11.1321C8.08041 14.2103 6.11248 18.2973 5.66974 22.6792C5.227 27.0611 6.33761 31.4593 8.80755 35.1055L24.9992 58.94L41.1909 35.1055C43.6608 31.4593 44.7714 27.0611 44.3287 22.6792C43.886 18.2973 41.918 14.2103 38.7687 11.1321C35.0872 7.5399 30.1424 5.53752 24.9992 5.55613Z" fill="#BBA155"/>
<path d="M25 83.3468C10.9806 83.3468 0 76.2428 0 67.1719C0.116563 64.9092 0.790813 62.7105 1.9627 60.7716C3.13458 58.8326 4.76772 57.2137 6.71667 56.0589C7.01743 55.8522 7.35595 55.7068 7.7129 55.631C8.06985 55.5551 8.43824 55.5504 8.79704 55.6169C9.15583 55.6835 9.49801 55.8201 9.80402 56.0189C10.11 56.2177 10.3739 56.4749 10.5806 56.7757C10.7872 57.0765 10.9326 57.4151 11.0084 57.7721C11.0842 58.1291 11.089 58.4975 11.0225 58.8564C10.9559 59.2153 10.8193 59.5575 10.6206 59.8636C10.4218 60.1696 10.1647 60.4335 9.86389 60.6402C8.67313 61.2982 7.65931 62.2347 6.90905 63.3697C6.1588 64.5047 5.69441 65.8044 5.55556 67.158C5.55556 72.9145 14.4611 77.7903 25 77.7903C35.5389 77.7903 44.4444 72.9284 44.4444 67.1719C44.3257 65.8771 43.9025 64.6287 43.2092 63.5288C42.516 62.4288 41.5724 61.5085 40.4556 60.843C40.1493 60.6335 39.8881 60.3646 39.6874 60.0524C39.4868 59.7402 39.3507 59.391 39.2872 59.0253C39.2237 58.6596 39.2342 58.2849 39.3179 57.9233C39.4016 57.5617 39.5569 57.2206 39.7746 56.92C39.9923 56.6195 40.2681 56.3656 40.5855 56.1734C40.903 55.9812 41.2557 55.8546 41.6229 55.801C41.9901 55.7474 42.3643 55.7679 42.7235 55.8613C43.0826 55.9548 43.4194 56.1193 43.7139 56.3451C45.5529 57.51 47.0843 59.1008 48.1785 60.983C49.2727 62.8651 49.8975 64.9832 50 67.158C50 76.2289 39.0194 83.3468 25 83.3468Z" fill="#BBA155"/>
<path d="M25.0017 36.1166C22.8042 36.1166 20.656 35.4648 18.8287 34.2437C17.0015 33.0226 15.5774 31.287 14.7364 29.2563C13.8954 27.2257 13.6754 24.9913 14.1041 22.8356C14.5329 20.6799 15.5911 18.6997 17.145 17.1455C18.6989 15.5914 20.6787 14.533 22.8341 14.1042C24.9894 13.6754 27.2235 13.8954 29.2538 14.7366C31.2841 15.5777 33.0194 17.002 34.2403 18.8296C35.4612 20.6571 36.1129 22.8057 36.1129 25.0036C36.1129 27.9509 34.9422 30.7776 32.8585 32.8616C30.7747 34.9457 27.9486 36.1166 25.0017 36.1166ZM25.0017 19.4471C23.903 19.4471 22.8288 19.773 21.9152 20.3835C21.0016 20.9941 20.2896 21.8619 19.8691 22.8772C19.4486 23.8925 19.3386 25.0098 19.5529 26.0876C19.7673 27.1655 20.2964 28.1555 21.0734 28.9326C21.8503 29.7097 22.8402 30.2389 23.9179 30.4533C24.9956 30.6677 26.1126 30.5577 27.1278 30.1371C28.1429 29.7166 29.0106 29.0044 29.621 28.0906C30.2315 27.1768 30.5573 26.1026 30.5573 25.0036C30.5573 23.5299 29.972 22.1166 28.9301 21.0746C27.8882 20.0325 26.4752 19.4471 25.0017 19.4471Z" fill="#BBA155"/>
</g>
<defs>
<clipPath id="clip0_700_33000">
<rect width="50" height="83.3333" fill="white"/>
</clipPath>
</defs>
</svg>
