<svg width="71" height="71" viewBox="0 0 71 71" fill="none" xmlns="http://www.w3.org/2000/svg">
<g clip-path="url(#clip0_581_34142)">
<path d="M18.8612 24.9648H27.1816C27.8502 24.9648 28.478 24.6434 28.8689 24.1011C29.2598 23.5587 29.3662 22.8613 29.1549 22.227L25.9016 12.4672C27.4013 12.3626 28.7974 11.7303 29.8708 10.6567L31.5941 8.93341C31.987 8.54055 32.5093 8.32422 33.0648 8.32422H33.4218V29.125H31.3417C30.193 29.125 29.2616 30.0563 29.2616 31.2051C29.2616 32.3538 30.193 33.2852 31.3417 33.2852H39.662C40.8108 33.2852 41.7421 32.3538 41.7421 31.2051C41.7421 30.0563 40.8108 29.125 39.662 29.125H37.5819V8.32422H37.9389C38.4944 8.32422 39.0168 8.54055 39.4096 8.93341L41.1329 10.6567C42.2064 11.7301 43.6024 12.3625 45.1021 12.4672L41.8489 22.227C41.6375 22.8613 41.7439 23.5587 42.1348 24.1011C42.5257 24.6435 43.1536 24.9648 43.8222 24.9648H52.1425C52.8112 24.9648 53.4389 24.6434 53.8298 24.1011C54.2208 23.5587 54.3271 22.8613 54.1158 22.227C49.2696 7.68868 50.0491 10.0443 49.9674 9.7818C49.957 9.76793 49.5327 8.32422 47.9823 8.32422H45.5453C44.9898 8.32422 44.4674 8.10789 44.0746 7.71503L42.3513 5.99176C41.1727 4.81305 39.6057 4.16406 37.9389 4.16406H37.5819V2.08398C37.5819 0.935227 36.6506 0.00390625 35.5019 0.00390625C34.3531 0.00390625 33.4218 0.935227 33.4218 2.08398V4.16406H33.0648C31.398 4.16406 29.831 4.81319 28.6524 5.99176L26.9292 7.71503C26.5363 8.10789 26.0139 8.32422 25.4584 8.32422H23.0214C22.13 8.32422 21.3098 8.90622 21.0344 9.78748L16.8879 22.227C16.6766 22.8613 16.783 23.5587 17.1739 24.1011C17.5648 24.6434 18.1926 24.9648 18.8612 24.9648ZM46.7082 20.8047L47.9823 16.9821L49.2565 20.8047H46.7082ZM21.7473 20.8047L23.0214 16.9821L24.2955 20.8047H21.7473Z" fill="#BBA155"/>
<path d="M68.9199 37.8594C68.5662 37.8594 4.2306 37.8594 2.08008 37.8594C0.93132 37.8594 0 38.7907 0 39.9395V64.9004C0 66.0492 0.93132 66.9805 2.08008 66.9805H10.5391C13.2508 66.9805 15.5629 65.2412 16.4215 62.8203H21.2964C21.8519 62.8203 22.3743 63.0366 22.7671 63.4295L26.6749 67.3373C29.0322 69.6946 32.1663 70.9928 35.5 70.9928C38.8337 70.9928 41.9678 69.6946 44.3251 67.3373L46.5096 65.1528C47.1792 64.4831 47.6773 63.6878 47.9832 62.8203H54.5785C55.4371 65.2412 57.7492 66.9805 60.4609 66.9805H68.9199C70.0687 66.9805 71 66.0492 71 64.9004V39.9395C71 38.7907 70.0687 37.8594 68.9199 37.8594ZM46.5096 56.3277L44.6278 54.4459C47.6883 54.0485 50.0605 51.4268 50.0605 48.2596C50.0605 47.1109 49.1292 46.1796 47.9805 46.1796C46.8317 46.1796 45.9004 47.1109 45.9004 48.2596C45.9004 49.4066 44.9673 50.3397 43.8203 50.3397H39.6602C38.4939 50.3397 37.5801 51.2953 37.5801 52.4198C37.5801 53.5667 36.647 54.4999 35.5 54.4999H33.4199V44.0995C33.4199 42.9525 34.353 42.0194 35.5 42.0194H54.2207V58.66H47.9832C47.6773 57.7926 47.1792 56.9973 46.5096 56.3277ZM10.5391 62.8203H4.16016V42.0195H12.6191V60.7402C12.6191 61.8872 11.686 62.8203 10.5391 62.8203ZM43.5679 62.2111L41.3834 64.3956C39.8119 65.9672 37.7225 66.8327 35.5 66.8327C33.2775 66.8327 31.1881 65.9672 29.6166 64.3956L25.7088 60.4879C24.5302 59.3091 22.9632 58.6602 21.2964 58.6602H16.7793V42.0195H29.6175C29.3867 42.6706 29.2598 43.3705 29.2598 44.0996V56.5801C29.2598 57.7288 30.1911 58.6602 31.3398 58.6602H35.5C37.5304 58.6602 39.3375 57.6853 40.4778 56.1792L43.5679 59.2693C43.9608 59.6622 44.1771 60.1846 44.1771 60.7402C44.1771 61.2959 43.9608 61.8181 43.5679 62.2111ZM66.8398 62.8203H60.4609C59.314 62.8203 58.3809 61.8872 58.3809 60.7402V42.0195H66.8398V62.8203Z" fill="#BBA155"/>
</g>
<defs>
<clipPath id="clip0_581_34142">
<rect width="71" height="71" fill="white"/>
</clipPath>
</defs>
</svg>
