<svg width="57" height="57" viewBox="0 0 57 57" fill="none" xmlns="http://www.w3.org/2000/svg">
<g clip-path="url(#clip0_6115_7352)">
<path d="M55.5326 22.6525L54.3518 21.4716L55.5326 20.2908C56.1847 19.6386 56.1847 18.5813 55.5326 17.9292L54.3518 16.7483L55.5326 15.5675C56.1847 14.9153 56.1847 13.858 55.5326 13.2059C54.8805 12.5537 53.8231 12.5537 53.171 13.2059L51.9902 14.3867L50.8095 13.2059C50.4964 12.8927 50.0716 12.7167 49.6287 12.7167C49.1859 12.7167 48.7611 12.8926 48.448 13.2059L43.418 18.2358V11.6895C43.418 11.2604 43.2447 10.8244 42.9289 10.5087L32.9094 0.489064C32.5983 0.177902 32.1633 0 31.7285 0H1.66992C0.74768 0 0 0.74768 0 1.66992V55.3301C0 56.2523 0.74768 57 1.66992 57H41.748C42.6703 57 43.418 56.2523 43.418 55.3301V32.4055L45.8632 29.9603C45.8633 29.9602 45.8634 29.9601 45.8634 29.9601C45.8634 29.9601 45.8635 29.9598 45.8636 29.9597L51.9902 23.8332L53.171 25.0141C53.4864 25.3295 53.6602 25.7489 53.6602 26.1948C53.6602 26.6409 53.4864 27.0603 53.171 27.3757L48.2251 32.3216C47.2788 33.2678 46.7577 34.5259 46.7577 35.864V38.6309C46.7577 39.5531 47.5054 40.3008 48.4276 40.3008C49.3499 40.3008 50.0975 39.5531 50.0975 38.6309V35.864C50.0975 35.418 50.2713 34.9987 50.5867 34.6832L55.5326 29.7373C56.4789 28.791 57 27.533 57 26.1948C57 24.8567 56.4789 23.5987 55.5326 22.6525ZM49.6286 16.7484L51.9902 19.11L44.6827 26.4176L42.3211 24.056L49.6286 16.7484ZM30.8704 40.2298L27.9184 40.8201L28.5089 37.8681L39.9594 26.4176L42.3211 28.7792L30.8704 40.2298ZM33.3984 5.70145L37.7165 10.0195H33.3984V5.70145ZM40.0781 53.6602H3.33984V3.33984H30.0586V11.6895C30.0586 12.6117 30.8063 13.3594 31.7285 13.3594H40.0781V21.5756L38.7797 22.874C38.7794 22.8744 38.7789 22.8747 38.7786 22.875C38.7783 22.8754 38.7779 22.8758 38.7776 22.8761L25.7897 35.864C25.5566 36.0971 25.3977 36.3941 25.3329 36.7174L24.2512 42.1257L22.2471 44.1297C21.595 44.7819 21.595 45.8391 22.2471 46.4913C22.8992 47.1435 23.9566 47.1435 24.6087 46.4913L26.6128 44.4873L32.0211 43.4056C32.3444 43.3409 32.6413 43.1821 32.8744 42.9489L40.0781 35.7453V53.6602Z" fill="#BBA155"/>
<path d="M11.6895 20.2617H31.7285C32.6508 20.2617 33.3984 19.514 33.3984 18.5918C33.3984 17.6696 32.6508 16.9219 31.7285 16.9219H11.6895C10.7672 16.9219 10.0195 17.6696 10.0195 18.5918C10.0195 19.514 10.7672 20.2617 11.6895 20.2617Z" fill="#BBA155"/>
<path d="M11.6895 26.9414H31.7285C32.6508 26.9414 33.3984 26.1937 33.3984 25.2715C33.3984 24.3492 32.6508 23.6016 31.7285 23.6016H11.6895C10.7672 23.6016 10.0195 24.3492 10.0195 25.2715C10.0195 26.1937 10.7672 26.9414 11.6895 26.9414Z" fill="#BBA155"/>
<path d="M23.3789 31.9512C23.3789 31.0289 22.6312 30.2812 21.709 30.2812H11.6895C10.7672 30.2812 10.0195 31.0289 10.0195 31.9512C10.0195 32.8734 10.7672 33.6211 11.6895 33.6211H21.709C22.6312 33.6211 23.3789 32.8734 23.3789 31.9512Z" fill="#BBA155"/>
<path d="M11.6895 13.582H15.0293C15.9515 13.582 16.6992 12.8344 16.6992 11.9121C16.6992 10.9899 15.9515 10.2422 15.0293 10.2422H11.6895C10.7672 10.2422 10.0195 10.9899 10.0195 11.9121C10.0195 12.8344 10.7672 13.582 11.6895 13.582Z" fill="#BBA155"/>
<path d="M15.0293 43.6406H11.6895C10.7672 43.6406 10.0195 44.3883 10.0195 45.3105C10.0195 46.2328 10.7672 46.9805 11.6895 46.9805H15.0293C15.9515 46.9805 16.6992 46.2328 16.6992 45.3105C16.6992 44.3883 15.9515 43.6406 15.0293 43.6406Z" fill="#BBA155"/>
</g>
<defs>
<clipPath id="clip0_6115_7352">
<rect width="57" height="57" fill="white"/>
</clipPath>
</defs>
</svg>
