<svg width="71" height="71" viewBox="0 0 71 71" fill="none" xmlns="http://www.w3.org/2000/svg">
<path d="M33.4199 37.7188H16.7793C15.6305 37.7188 14.6992 38.6501 14.6992 39.7988C14.6992 40.9476 15.6305 41.8789 16.7793 41.8789H33.4199C34.5687 41.8789 35.5 40.9476 35.5 39.7988C35.5 38.6501 34.5687 37.7188 33.4199 37.7188Z" fill="#BBA155"/>
<path d="M25.0996 46.0391H16.7793C15.6305 46.0391 14.6992 46.9704 14.6992 48.1191C14.6992 49.2679 15.6305 50.1992 16.7793 50.1992H25.0996C26.2484 50.1992 27.1797 49.2679 27.1797 48.1191C27.1797 46.9704 26.2484 46.0391 25.0996 46.0391Z" fill="#BBA155"/>
<path d="M25.0996 54.3594H16.7793C15.6305 54.3594 14.6992 55.2907 14.6992 56.4395C14.6992 57.5882 15.6305 58.5195 16.7793 58.5195H25.0996C26.2484 58.5195 27.1797 57.5882 27.1797 56.4395C27.1797 55.2907 26.2484 54.3594 25.0996 54.3594Z" fill="#BBA155"/>
<path d="M62.541 29.3984H56.3008V14.5605C56.3008 13.9964 56.0661 13.4641 55.6912 13.0894L43.2114 0.609602C42.8245 0.22243 42.2909 0 41.7402 0H4.29883C3.15007 0 2.21875 0.93132 2.21875 2.08008V68.9199C2.21875 70.0687 3.15007 71 4.29883 71H62.541C65.9819 71 68.7812 68.2006 68.7812 64.7598V35.6387C68.7812 32.1978 65.9819 29.3984 62.541 29.3984ZM64.6211 35.6387V41.8789H43.8203V35.6387C43.8203 34.4917 44.7534 33.5586 45.9004 33.5586H62.541C63.688 33.5586 64.6211 34.4917 64.6211 35.6387ZM43.8203 7.1018L49.199 12.4805H43.8203V7.1018ZM6.37891 4.16016H39.6602V14.5605C39.6602 15.7093 40.5915 16.6406 41.7402 16.6406H52.1406V29.3984H45.9004C42.4595 29.3984 39.6602 32.1978 39.6602 35.6387V64.7598C39.6602 65.4889 39.787 66.1888 40.0179 66.8398H6.37891V4.16016ZM62.541 66.8398H45.9004C44.7534 66.8398 43.8203 65.9067 43.8203 64.7598V46.0391H64.6211V64.7598C64.6211 65.9067 63.688 66.8398 62.541 66.8398Z" fill="#BBA155"/>
<path d="M17.746 30.5129C18.5582 31.3253 19.8753 31.3254 20.6876 30.5129L32.4543 18.7462C33.2667 17.9339 33.2667 16.6169 32.4543 15.8046C31.6421 14.9922 30.325 14.9922 29.5127 15.8046L17.746 27.5713C16.9336 28.3836 16.9336 29.7006 17.746 30.5129Z" fill="#BBA155"/>
<path d="M58.3809 54.3594C59.5297 54.3594 60.4609 53.4281 60.4609 52.2793C60.4609 51.1305 59.5297 50.1992 58.3809 50.1992C57.2321 50.1992 56.3008 51.1305 56.3008 52.2793C56.3008 53.4281 57.2321 54.3594 58.3809 54.3594Z" fill="#BBA155"/>
<path d="M50.0605 54.3594C51.2093 54.3594 52.1406 53.4281 52.1406 52.2793C52.1406 51.1305 51.2093 50.1992 50.0605 50.1992C48.9118 50.1992 47.9805 51.1305 47.9805 52.2793C47.9805 53.4281 48.9118 54.3594 50.0605 54.3594Z" fill="#BBA155"/>
<path d="M20.6876 18.7461C21.5 17.9338 21.5 16.6168 20.6876 15.8045C19.8753 14.9923 18.5583 14.9923 17.746 15.8045C16.9336 16.6168 16.9336 17.9338 17.746 18.7461C18.5583 19.5584 19.8753 19.5584 20.6876 18.7461Z" fill="#BBA155"/>
<path d="M29.5116 27.5702C28.6993 28.3825 28.6993 29.6995 29.5116 30.5118C30.3239 31.324 31.6409 31.324 32.4532 30.5118C33.2656 29.6995 33.2656 28.3825 32.4532 27.5702C31.6409 26.7579 30.3239 26.7579 29.5116 27.5702Z" fill="#BBA155"/>
<path d="M58.3809 62.6797C59.5297 62.6797 60.4609 61.7484 60.4609 60.5996C60.4609 59.4508 59.5297 58.5195 58.3809 58.5195C57.2321 58.5195 56.3008 59.4508 56.3008 60.5996C56.3008 61.7484 57.2321 62.6797 58.3809 62.6797Z" fill="#BBA155"/>
<path d="M50.0605 62.6797C51.2093 62.6797 52.1406 61.7484 52.1406 60.5996C52.1406 59.4508 51.2093 58.5195 50.0605 58.5195C48.9118 58.5195 47.9805 59.4508 47.9805 60.5996C47.9805 61.7484 48.9118 62.6797 50.0605 62.6797Z" fill="#BBA155"/>
</svg>
