<svg width="50" height="48" viewBox="0 0 50 48" fill="none" xmlns="http://www.w3.org/2000/svg">
<g clip-path="url(#clip0_700_32995)">
<path d="M34.1318 47.3658C33.8781 47.3657 33.6278 47.3108 33.3999 47.2051C33.172 47.0995 32.9726 46.946 32.8168 46.7563L18.8168 29.7037L0.858487 20.2553C0.581774 20.1099 0.35445 19.8929 0.203088 19.6297C0.051725 19.3665 -0.0174222 19.0679 0.00372884 18.7688C0.0248799 18.4697 0.135455 18.1825 0.32253 17.9408C0.509604 17.6991 0.765447 17.5128 1.06015 17.4037L47.7268 0.104734C48.0184 -0.00341281 48.3363 -0.0315359 48.644 0.0235881C48.9517 0.078712 49.2368 0.214853 49.4666 0.416407C49.6964 0.617962 49.8616 0.876776 49.9433 1.16319C50.025 1.4496 50.0199 1.75202 49.9285 2.03579L35.7268 46.2463C35.6228 46.5703 35.4116 46.854 35.1244 47.0555C34.8372 47.2571 34.4892 47.3659 34.1318 47.3658ZM5.57015 19.1232L20.7368 27.1079C20.9316 27.2107 21.1018 27.3504 21.2368 27.5184L33.4668 42.4126L45.7335 4.23526L5.57015 19.1232Z" fill="#BBA155"/>
<path d="M15.8702 43.5227C15.6123 43.5227 15.3579 43.4661 15.1271 43.3572C14.8962 43.2483 14.6951 43.0902 14.5397 42.8952C14.3843 42.7002 14.2788 42.4737 14.2314 42.2336C14.1841 41.9934 14.1962 41.7461 14.2669 41.5111L18.3236 28.0569C18.4447 27.654 18.7298 27.3133 19.1161 27.1095C19.5024 26.9058 19.9583 26.8558 20.3836 26.9706C20.8088 27.0853 21.1685 27.3554 21.3835 27.7214C21.5986 28.0874 21.6514 28.5193 21.5302 28.9221L18.4052 39.2832L25.4052 36.6337C25.6086 36.5568 25.8259 36.5186 26.0448 36.5212C26.2638 36.5239 26.48 36.5673 26.6812 36.6491C26.8824 36.731 27.0646 36.8495 27.2174 36.998C27.3703 37.1466 27.4907 37.3222 27.5719 37.5148C27.6531 37.7074 27.6935 37.9133 27.6907 38.1207C27.6879 38.3281 27.642 38.533 27.5556 38.7236C27.4693 38.9142 27.3441 39.0868 27.1874 39.2316C27.0306 39.3764 26.8452 39.4905 26.6419 39.5674L16.4886 43.4106C16.2919 43.4848 16.082 43.5229 15.8702 43.5227Z" fill="#BBA155"/>
<path d="M19.928 30.0657C19.5984 30.0656 19.2763 29.973 19.0023 29.7995C18.7282 29.626 18.5147 29.3794 18.3886 29.0909C18.2625 28.8025 18.2294 28.485 18.2937 28.1788C18.358 27.8726 18.5167 27.5913 18.7497 27.3704L47.1564 0.458854C47.4707 0.171236 47.8917 0.0120872 48.3287 0.0156847C48.7657 0.0192822 49.1837 0.185338 49.4927 0.478088C49.8017 0.770838 49.977 1.16686 49.9808 1.58085C49.9846 1.99485 49.8166 2.39369 49.513 2.69149L21.1064 29.6031C20.7939 29.8992 20.37 30.0656 19.928 30.0657Z" fill="#BBA155"/>
</g>
<defs>
<clipPath id="clip0_700_32995">
<rect width="50" height="47.3684" fill="white"/>
</clipPath>
</defs>
</svg>
