<svg width="50" height="50" viewBox="0 0 50 50" fill="none" xmlns="http://www.w3.org/2000/svg">
<g clip-path="url(#clip0_700_32990)">
<path d="M29.8559 50.0011C27.8123 50.0048 25.788 49.6048 23.8995 48.8239C22.0109 48.043 20.2953 46.8967 18.8511 45.4508L4.55214 31.1462C1.63712 28.2249 0 24.2664 0 20.1393C0 16.0123 1.63712 12.0538 4.55214 9.13242C6.02136 7.66681 8.01186 6.84375 10.0871 6.84375C12.1623 6.84375 14.1528 7.66681 15.622 9.13242L18.2692 11.7798C19.7068 13.2329 20.5227 15.1883 20.5444 17.2323C20.5661 19.2763 19.7919 21.2485 18.3856 22.7319C18.1692 22.9294 17.9939 23.1677 17.8698 23.4332C17.7457 23.6986 17.6753 23.986 17.6626 24.2787C17.6498 24.5714 17.6951 24.8638 17.7957 25.139C17.8962 25.4142 18.0502 25.6668 18.2487 25.8824L24.0942 31.7298C24.4897 32.1288 25.0258 32.3569 25.5876 32.3652C26.1493 32.3735 26.692 32.1614 27.0991 31.7743C28.557 30.3146 30.5286 29.484 32.5914 29.4607C34.6543 29.4373 36.6442 30.223 38.1347 31.6494L40.8624 34.3771C42.3284 35.8462 43.1517 37.8368 43.1517 39.9122C43.1517 41.9877 42.3284 43.9783 40.8624 45.4474C39.4181 46.894 37.7023 48.0409 35.8135 48.8224C33.9246 49.6039 31.9 50.0044 29.8559 50.0011ZM10.0862 10.2687C9.50796 10.2678 8.93523 10.381 8.40081 10.6019C7.86638 10.8227 7.38078 11.1468 6.9718 11.5556C4.69838 13.8351 3.4217 16.9233 3.4217 20.1428C3.4217 23.3623 4.69838 26.4504 6.9718 28.7299L21.2707 43.0293C23.5499 45.3027 26.6376 46.5794 29.8567 46.5794C33.0758 46.5794 36.1636 45.3027 38.4428 43.0293C39.268 42.2025 39.7314 41.0821 39.7314 39.914C39.7314 38.7458 39.268 37.6254 38.4428 36.7986L35.7151 34.0725C34.8577 33.2678 33.7159 32.8364 32.5406 32.873C31.3653 32.9096 30.2526 33.4112 29.4469 34.2676C28.3943 35.2698 26.9906 35.8192 25.5373 35.7978C24.0841 35.7763 22.6972 35.1858 21.6746 34.153L15.829 28.3072C14.7948 27.2388 14.2237 25.8056 14.2398 24.3186C14.2558 22.8317 14.8576 21.4111 15.9146 20.3652C16.7057 19.5308 17.1411 18.4212 17.1286 17.2714C17.1162 16.1216 16.6569 15.0218 15.8479 14.2046L13.2023 11.559C12.7936 11.1492 12.3079 10.8242 11.7731 10.6027C11.2383 10.3813 10.665 10.2678 10.0862 10.2687Z" fill="#BBA155"/>
<path d="M38.0218 25.671C37.5679 25.671 37.1327 25.4907 36.8117 25.1698C36.4908 24.8488 36.3105 24.4136 36.3105 23.9597C36.3074 21.2375 35.2246 18.6278 33.2998 16.7029C31.375 14.778 28.7653 13.6952 26.0432 13.6921C25.5894 13.6921 25.1541 13.5118 24.8332 13.1909C24.5123 12.8699 24.332 12.4347 24.332 11.9808C24.332 11.5269 24.5123 11.0917 24.8332 10.7708C25.1541 10.4498 25.5894 10.2695 26.0432 10.2695C29.6727 10.2736 33.1524 11.7173 35.7188 14.2838C38.2853 16.8503 39.7289 20.3301 39.733 23.9597C39.733 24.4136 39.5527 24.8488 39.2318 25.1698C38.9109 25.4907 38.4756 25.671 38.0218 25.671Z" fill="#BBA155"/>
<path d="M48.289 25.6691C47.8352 25.6691 47.3999 25.4888 47.079 25.1679C46.7581 24.847 46.5778 24.4117 46.5778 23.9578C46.5715 18.5135 44.406 13.2939 40.5564 9.4442C36.7068 5.59446 31.4874 3.42889 26.0432 3.42255C25.5894 3.42255 25.1542 3.24225 24.8332 2.92133C24.5123 2.6004 24.332 2.16513 24.332 1.71127C24.332 1.25742 24.5123 0.822147 24.8332 0.501221C25.1542 0.180294 25.5894 0 26.0432 0C32.3948 0.00724677 38.4842 2.5337 42.9754 7.02509C47.4667 11.5165 49.993 17.606 50.0003 23.9578C50.0003 24.4117 49.82 24.847 49.4991 25.1679C49.1781 25.4888 48.7429 25.6691 48.289 25.6691Z" fill="#BBA155"/>
</g>
<defs>
<clipPath id="clip0_700_32990">
<rect width="50" height="50" fill="white"/>
</clipPath>
</defs>
</svg>
