<svg width="71" height="71" viewBox="0 0 71 71" fill="none" xmlns="http://www.w3.org/2000/svg">
<g clip-path="url(#clip0_581_34159)">
<path d="M62.5742 30.5444C62.5695 30.5304 58.203 17.4307 58.4139 18.0634C58.1356 17.2274 57.3392 16.641 56.4405 16.641H54.0036C53.4479 16.641 52.9255 16.4246 52.5327 16.0318L50.8094 14.3084C49.6308 13.1297 48.0636 12.4806 46.3967 12.4806H46.0399V10.4005C46.0399 9.25167 45.1085 8.32031 43.9597 8.32031C42.8109 8.32031 41.8795 9.25167 41.8795 10.4005V12.4806H41.5227C39.8557 12.4806 38.2886 13.1298 37.1099 14.3084L35.3868 16.0318C34.9939 16.4246 34.4714 16.641 33.9158 16.641H31.4789C30.6121 16.641 29.7859 17.1894 29.4917 18.1043L25.345 30.5444C25.1337 31.1787 25.2399 31.8761 25.631 32.4184C26.0219 32.961 26.65 33.2823 27.3185 33.2823H35.6392C36.3077 33.2823 36.9358 32.9608 37.3267 32.4184C37.7177 31.8761 37.824 31.1787 37.6127 30.5444L34.3593 20.7841C35.8593 20.6795 37.2553 20.047 38.329 18.9735L40.052 17.2502C40.4449 16.8573 40.9674 16.641 41.523 16.641H41.8798V37.4426H39.7996C38.6508 37.4426 37.7195 38.374 37.7195 39.5228C37.7195 40.6716 38.6508 41.6029 39.7996 41.6029H48.1203C49.2691 41.6029 50.2005 40.6716 50.2005 39.5228C50.2005 38.374 49.2691 37.4426 48.1203 37.4426H46.0401V16.641H46.397C46.9526 16.641 47.475 16.8573 47.8678 17.2502L49.5911 18.9735C50.6646 20.047 52.0607 20.6794 53.5606 20.7841L50.3072 30.5444C50.0959 31.1787 50.2021 31.8761 50.5932 32.4184C50.9841 32.961 51.6122 33.2823 52.2808 33.2823H60.6014C61.27 33.2823 61.8981 32.9608 62.289 32.4184C62.6794 31.8761 62.7857 31.1787 62.5742 30.5444ZM30.2043 29.1219L31.4784 25.2992L32.7527 29.1219H30.2043ZM55.1662 29.1219L56.4404 25.2992L57.7147 29.1219H55.1662Z" fill="#BBA155"/>
<path d="M43.9579 0C29.0469 0 16.9158 12.1311 16.9158 27.0421C16.9158 32.2416 18.3922 37.1019 20.9458 41.229L7.70916 54.4658C7.70902 54.4659 7.70888 54.466 7.7086 54.4662C7.70832 54.4663 7.70832 54.4664 7.70818 54.4667L1.82493 60.3497C-0.608309 62.7828 -0.608309 66.7419 1.82493 69.1751C4.25803 71.6081 8.21699 71.6082 10.6502 69.1751L29.7711 50.0544C33.898 52.6079 38.7585 54.0843 43.9579 54.0843C58.869 54.0843 71.0001 41.9532 71.0001 27.0421C71.0001 12.1311 58.869 0 43.9579 0ZM7.70846 66.2334C6.89734 67.0444 5.57782 67.0444 4.76669 66.2334C3.95557 65.4223 3.95557 64.1026 4.76669 63.2915L23.4313 44.6269C24.3355 45.6808 25.3193 46.6646 26.3732 47.5688L7.70846 66.2334ZM43.9579 49.9239C31.3409 49.9239 21.0761 39.6591 21.0761 27.0421C21.0761 14.4251 31.3409 4.16033 43.9579 4.16033C56.575 4.16033 66.8397 14.4251 66.8397 27.0421C66.8397 39.6591 56.575 49.9239 43.9579 49.9239Z" fill="#BBA155"/>
</g>
<defs>
<clipPath id="clip0_581_34159">
<rect width="71" height="71" fill="white"/>
</clipPath>
</defs>
</svg>
